# xmcd
#
# Track frame offsets: 
#        182
#        17377
#        36765
#        54625
#        82747
#        98952
#        124062
#        148090
#        164600
#        179342
#        198362
#        213222
#
# Disc length: 3067 seconds
#
# Revision: 4
# Processed by: cddbd v1.5.1PL0 Copyright (c) Steve Scherf et al.
# Submitted via: ExactAudioCopy v0.95a5
#
DISCID=9d0bf90c
DTITLE=John Mayall And The Bluesbreakers - Blues For The Lost Days
DYEAR=1997
DGENRE=Blues
TTITLE0=Dead City
TTITLE1=Stone Cold Deal
TTITLE2=All Those Heroes
TTITLE3=Blues For The Lost Days
TTITLE4=Trenches
TTITLE5=One In A Million
TTITLE6=How Can You Live Like That
TTITLE7=Some Other Day
TTITLE8=I Don't Mind
TTITLE9=It Ain't Safe
TTITLE10=Sen-Say-Shun
TTITLE11=You Are For Real
EXTD=YEAR: 1997
EXTT0=
EXTT1=
EXTT2=
EXTT3=
EXTT4=
EXTT5=
EXTT6=
EXTT7=
EXTT8=
EXTT9=
EXTT10=
EXTT11=
PLAYORDER=
